<?xml version="1.0" encoding="utf-8" standalone="no"?>
<!DOCTYPE svg PUBLIC "-//W3C//DTD SVG 1.1//EN"
  "http://www.w3.org/Graphics/SVG/1.1/DTD/svg11.dtd">
<svg xmlns:xlink="http://www.w3.org/1999/xlink" width="460.8pt" height="345.6pt" viewBox="0 0 460.8 345.6" xmlns="http://www.w3.org/2000/svg" version="1.1">
 <metadata>
  <rdf:RDF xmlns:dc="http://purl.org/dc/elements/1.1/" xmlns:cc="http://creativecommons.org/ns#" xmlns:rdf="http://www.w3.org/1999/02/22-rdf-syntax-ns#">
   <cc:Work>
    <dc:type rdf:resource="http://purl.org/dc/dcmitype/StillImage"/>
    <dc:date>2023-10-30T00:05:26.871228</dc:date>
    <dc:format>image/svg+xml</dc:format>
    <dc:creator>
     <cc:Agent>
      <dc:title>Matplotlib v3.8.0, https://matplotlib.org/</dc:title>
     </cc:Agent>
    </dc:creator>
   </cc:Work>
  </rdf:RDF>
 </metadata>
 <defs>
  <style type="text/css">*{stroke-linejoin: round; stroke-linecap: butt}</style>
 </defs>
 <g id="figure_1">
  <g id="patch_1">
   <path d="M 0 345.6 
L 460.8 345.6 
L 460.8 0 
L 0 0 
z
" style="fill: #ffffff"/>
  </g>
  <g id="axes_1">
   <g id="patch_2">
    <path d="M 57.6 307.584 
L 414.72 307.584 
L 414.72 41.472 
L 57.6 41.472 
z
" style="fill: #ffffff"/>
   </g>
   <g id="matplotlib.axis_1">
    <g id="xtick_1">
     <g id="line2d_1">
      <defs>
       <path id="m46bd2cd230" d="M 0 0 
L 0 3.5 
" style="stroke: #000000; stroke-width: 0.8"/>
      </defs>
      <g>
       <use xlink:href="#m46bd2cd230" x="72.746926" y="307.584" style="stroke: #000000; stroke-width: 0.8"/>
      </g>
     </g>
     <g id="text_1">
      <!-- 0 -->
      <g transform="translate(69.565676 322.182437) scale(0.1 -0.1)">
       <defs>
        <path id="DejaVuSans-30" d="M 2034 4250 
Q 1547 4250 1301 3770 
Q 1056 3291 1056 2328 
Q 1056 1369 1301 889 
Q 1547 409 2034 409 
Q 2525 409 2770 889 
Q 3016 1369 3016 2328 
Q 3016 3291 2770 3770 
Q 2525 4250 2034 4250 
z
M 2034 4750 
Q 2819 4750 3233 4129 
Q 3647 3509 3647 2328 
Q 3647 1150 3233 529 
Q 2819 -91 2034 -91 
Q 1250 -91 836 529 
Q 422 1150 422 2328 
Q 422 3509 836 4129 
Q 1250 4750 2034 4750 
z
" transform="scale(0.015625)"/>
       </defs>
       <use xlink:href="#DejaVuSans-30"/>
      </g>
     </g>
    </g>
    <g id="xtick_2">
     <g id="line2d_2">
      <g>
       <use xlink:href="#m46bd2cd230" x="127.036984" y="307.584" style="stroke: #000000; stroke-width: 0.8"/>
      </g>
     </g>
     <g id="text_2">
      <!-- 50 -->
      <g transform="translate(120.674484 322.182437) scale(0.1 -0.1)">
       <defs>
        <path id="DejaVuSans-35" d="M 691 4666 
L 3169 4666 
L 3169 4134 
L 1269 4134 
L 1269 2991 
Q 1406 3038 1543 3061 
Q 1681 3084 1819 3084 
Q 2600 3084 3056 2656 
Q 3513 2228 3513 1497 
Q 3513 744 3044 326 
Q 2575 -91 1722 -91 
Q 1428 -91 1123 -41 
Q 819 9 494 109 
L 494 744 
Q 775 591 1075 516 
Q 1375 441 1709 441 
Q 2250 441 2565 725 
Q 2881 1009 2881 1497 
Q 2881 1984 2565 2268 
Q 2250 2553 1709 2553 
Q 1456 2553 1204 2497 
Q 953 2441 691 2322 
L 691 4666 
z
" transform="scale(0.015625)"/>
       </defs>
       <use xlink:href="#DejaVuSans-35"/>
       <use xlink:href="#DejaVuSans-30" x="63.623047"/>
      </g>
     </g>
    </g>
    <g id="xtick_3">
     <g id="line2d_3">
      <g>
       <use xlink:href="#m46bd2cd230" x="181.327042" y="307.584" style="stroke: #000000; stroke-width: 0.8"/>
      </g>
     </g>
     <g id="text_3">
      <!-- 100 -->
      <g transform="translate(171.783292 322.182437) scale(0.1 -0.1)">
       <defs>
        <path id="DejaVuSans-31" d="M 794 531 
L 1825 531 
L 1825 4091 
L 703 3866 
L 703 4441 
L 1819 4666 
L 2450 4666 
L 2450 531 
L 3481 531 
L 3481 0 
L 794 0 
L 794 531 
z
" transform="scale(0.015625)"/>
       </defs>
       <use xlink:href="#DejaVuSans-31"/>
       <use xlink:href="#DejaVuSans-30" x="63.623047"/>
       <use xlink:href="#DejaVuSans-30" x="127.246094"/>
      </g>
     </g>
    </g>
    <g id="xtick_4">
     <g id="line2d_4">
      <g>
       <use xlink:href="#m46bd2cd230" x="235.617099" y="307.584" style="stroke: #000000; stroke-width: 0.8"/>
      </g>
     </g>
     <g id="text_4">
      <!-- 150 -->
      <g transform="translate(226.073349 322.182437) scale(0.1 -0.1)">
       <use xlink:href="#DejaVuSans-31"/>
       <use xlink:href="#DejaVuSans-35" x="63.623047"/>
       <use xlink:href="#DejaVuSans-30" x="127.246094"/>
      </g>
     </g>
    </g>
    <g id="xtick_5">
     <g id="line2d_5">
      <g>
       <use xlink:href="#m46bd2cd230" x="289.907157" y="307.584" style="stroke: #000000; stroke-width: 0.8"/>
      </g>
     </g>
     <g id="text_5">
      <!-- 200 -->
      <g transform="translate(280.363407 322.182437) scale(0.1 -0.1)">
       <defs>
        <path id="DejaVuSans-32" d="M 1228 531 
L 3431 531 
L 3431 0 
L 469 0 
L 469 531 
Q 828 903 1448 1529 
Q 2069 2156 2228 2338 
Q 2531 2678 2651 2914 
Q 2772 3150 2772 3378 
Q 2772 3750 2511 3984 
Q 2250 4219 1831 4219 
Q 1534 4219 1204 4116 
Q 875 4013 500 3803 
L 500 4441 
Q 881 4594 1212 4672 
Q 1544 4750 1819 4750 
Q 2544 4750 2975 4387 
Q 3406 4025 3406 3419 
Q 3406 3131 3298 2873 
Q 3191 2616 2906 2266 
Q 2828 2175 2409 1742 
Q 1991 1309 1228 531 
z
" transform="scale(0.015625)"/>
       </defs>
       <use xlink:href="#DejaVuSans-32"/>
       <use xlink:href="#DejaVuSans-30" x="63.623047"/>
       <use xlink:href="#DejaVuSans-30" x="127.246094"/>
      </g>
     </g>
    </g>
    <g id="xtick_6">
     <g id="line2d_6">
      <g>
       <use xlink:href="#m46bd2cd230" x="344.197215" y="307.584" style="stroke: #000000; stroke-width: 0.8"/>
      </g>
     </g>
     <g id="text_6">
      <!-- 250 -->
      <g transform="translate(334.653465 322.182437) scale(0.1 -0.1)">
       <use xlink:href="#DejaVuSans-32"/>
       <use xlink:href="#DejaVuSans-35" x="63.623047"/>
       <use xlink:href="#DejaVuSans-30" x="127.246094"/>
      </g>
     </g>
    </g>
    <g id="xtick_7">
     <g id="line2d_7">
      <g>
       <use xlink:href="#m46bd2cd230" x="398.487273" y="307.584" style="stroke: #000000; stroke-width: 0.8"/>
      </g>
     </g>
     <g id="text_7">
      <!-- 300 -->
      <g transform="translate(388.943523 322.182437) scale(0.1 -0.1)">
       <defs>
        <path id="DejaVuSans-33" d="M 2597 2516 
Q 3050 2419 3304 2112 
Q 3559 1806 3559 1356 
Q 3559 666 3084 287 
Q 2609 -91 1734 -91 
Q 1441 -91 1130 -33 
Q 819 25 488 141 
L 488 750 
Q 750 597 1062 519 
Q 1375 441 1716 441 
Q 2309 441 2620 675 
Q 2931 909 2931 1356 
Q 2931 1769 2642 2001 
Q 2353 2234 1838 2234 
L 1294 2234 
L 1294 2753 
L 1863 2753 
Q 2328 2753 2575 2939 
Q 2822 3125 2822 3475 
Q 2822 3834 2567 4026 
Q 2313 4219 1838 4219 
Q 1578 4219 1281 4162 
Q 984 4106 628 3988 
L 628 4550 
Q 988 4650 1302 4700 
Q 1616 4750 1894 4750 
Q 2613 4750 3031 4423 
Q 3450 4097 3450 3541 
Q 3450 3153 3228 2886 
Q 3006 2619 2597 2516 
z
" transform="scale(0.015625)"/>
       </defs>
       <use xlink:href="#DejaVuSans-33"/>
       <use xlink:href="#DejaVuSans-30" x="63.623047"/>
       <use xlink:href="#DejaVuSans-30" x="127.246094"/>
      </g>
     </g>
    </g>
   </g>
   <g id="matplotlib.axis_2">
    <g id="ytick_1">
     <g id="line2d_8">
      <defs>
       <path id="m3e69364af8" d="M 0 0 
L -3.5 0 
" style="stroke: #000000; stroke-width: 0.8"/>
      </defs>
      <g>
       <use xlink:href="#m3e69364af8" x="57.6" y="285.78863" style="stroke: #000000; stroke-width: 0.8"/>
      </g>
     </g>
     <g id="text_8">
      <!-- −115 -->
      <g transform="translate(23.132812 289.587849) scale(0.1 -0.1)">
       <defs>
        <path id="DejaVuSans-2212" d="M 678 2272 
L 4684 2272 
L 4684 1741 
L 678 1741 
L 678 2272 
z
" transform="scale(0.015625)"/>
       </defs>
       <use xlink:href="#DejaVuSans-2212"/>
       <use xlink:href="#DejaVuSans-31" x="83.789062"/>
       <use xlink:href="#DejaVuSans-31" x="147.412109"/>
       <use xlink:href="#DejaVuSans-35" x="211.035156"/>
      </g>
     </g>
    </g>
    <g id="ytick_2">
     <g id="line2d_9">
      <g>
       <use xlink:href="#m3e69364af8" x="57.6" y="253.121068" style="stroke: #000000; stroke-width: 0.8"/>
      </g>
     </g>
     <g id="text_9">
      <!-- −110 -->
      <g transform="translate(23.132812 256.920287) scale(0.1 -0.1)">
       <use xlink:href="#DejaVuSans-2212"/>
       <use xlink:href="#DejaVuSans-31" x="83.789062"/>
       <use xlink:href="#DejaVuSans-31" x="147.412109"/>
       <use xlink:href="#DejaVuSans-30" x="211.035156"/>
      </g>
     </g>
    </g>
    <g id="ytick_3">
     <g id="line2d_10">
      <g>
       <use xlink:href="#m3e69364af8" x="57.6" y="220.453506" style="stroke: #000000; stroke-width: 0.8"/>
      </g>
     </g>
     <g id="text_10">
      <!-- −105 -->
      <g transform="translate(23.132812 224.252724) scale(0.1 -0.1)">
       <use xlink:href="#DejaVuSans-2212"/>
       <use xlink:href="#DejaVuSans-31" x="83.789062"/>
       <use xlink:href="#DejaVuSans-30" x="147.412109"/>
       <use xlink:href="#DejaVuSans-35" x="211.035156"/>
      </g>
     </g>
    </g>
    <g id="ytick_4">
     <g id="line2d_11">
      <g>
       <use xlink:href="#m3e69364af8" x="57.6" y="187.785943" style="stroke: #000000; stroke-width: 0.8"/>
      </g>
     </g>
     <g id="text_11">
      <!-- −100 -->
      <g transform="translate(23.132812 191.585162) scale(0.1 -0.1)">
       <use xlink:href="#DejaVuSans-2212"/>
       <use xlink:href="#DejaVuSans-31" x="83.789062"/>
       <use xlink:href="#DejaVuSans-30" x="147.412109"/>
       <use xlink:href="#DejaVuSans-30" x="211.035156"/>
      </g>
     </g>
    </g>
    <g id="ytick_5">
     <g id="line2d_12">
      <g>
       <use xlink:href="#m3e69364af8" x="57.6" y="155.118381" style="stroke: #000000; stroke-width: 0.8"/>
      </g>
     </g>
     <g id="text_12">
      <!-- −95 -->
      <g transform="translate(29.495313 158.9176) scale(0.1 -0.1)">
       <defs>
        <path id="DejaVuSans-39" d="M 703 97 
L 703 672 
Q 941 559 1184 500 
Q 1428 441 1663 441 
Q 2288 441 2617 861 
Q 2947 1281 2994 2138 
Q 2813 1869 2534 1725 
Q 2256 1581 1919 1581 
Q 1219 1581 811 2004 
Q 403 2428 403 3163 
Q 403 3881 828 4315 
Q 1253 4750 1959 4750 
Q 2769 4750 3195 4129 
Q 3622 3509 3622 2328 
Q 3622 1225 3098 567 
Q 2575 -91 1691 -91 
Q 1453 -91 1209 -44 
Q 966 3 703 97 
z
M 1959 2075 
Q 2384 2075 2632 2365 
Q 2881 2656 2881 3163 
Q 2881 3666 2632 3958 
Q 2384 4250 1959 4250 
Q 1534 4250 1286 3958 
Q 1038 3666 1038 3163 
Q 1038 2656 1286 2365 
Q 1534 2075 1959 2075 
z
" transform="scale(0.015625)"/>
       </defs>
       <use xlink:href="#DejaVuSans-2212"/>
       <use xlink:href="#DejaVuSans-39" x="83.789062"/>
       <use xlink:href="#DejaVuSans-35" x="147.412109"/>
      </g>
     </g>
    </g>
    <g id="ytick_6">
     <g id="line2d_13">
      <g>
       <use xlink:href="#m3e69364af8" x="57.6" y="122.450819" style="stroke: #000000; stroke-width: 0.8"/>
      </g>
     </g>
     <g id="text_13">
      <!-- −90 -->
      <g transform="translate(29.495313 126.250037) scale(0.1 -0.1)">
       <use xlink:href="#DejaVuSans-2212"/>
       <use xlink:href="#DejaVuSans-39" x="83.789062"/>
       <use xlink:href="#DejaVuSans-30" x="147.412109"/>
      </g>
     </g>
    </g>
    <g id="ytick_7">
     <g id="line2d_14">
      <g>
       <use xlink:href="#m3e69364af8" x="57.6" y="89.783256" style="stroke: #000000; stroke-width: 0.8"/>
      </g>
     </g>
     <g id="text_14">
      <!-- −85 -->
      <g transform="translate(29.495313 93.582475) scale(0.1 -0.1)">
       <defs>
        <path id="DejaVuSans-38" d="M 2034 2216 
Q 1584 2216 1326 1975 
Q 1069 1734 1069 1313 
Q 1069 891 1326 650 
Q 1584 409 2034 409 
Q 2484 409 2743 651 
Q 3003 894 3003 1313 
Q 3003 1734 2745 1975 
Q 2488 2216 2034 2216 
z
M 1403 2484 
Q 997 2584 770 2862 
Q 544 3141 544 3541 
Q 544 4100 942 4425 
Q 1341 4750 2034 4750 
Q 2731 4750 3128 4425 
Q 3525 4100 3525 3541 
Q 3525 3141 3298 2862 
Q 3072 2584 2669 2484 
Q 3125 2378 3379 2068 
Q 3634 1759 3634 1313 
Q 3634 634 3220 271 
Q 2806 -91 2034 -91 
Q 1263 -91 848 271 
Q 434 634 434 1313 
Q 434 1759 690 2068 
Q 947 2378 1403 2484 
z
M 1172 3481 
Q 1172 3119 1398 2916 
Q 1625 2713 2034 2713 
Q 2441 2713 2670 2916 
Q 2900 3119 2900 3481 
Q 2900 3844 2670 4047 
Q 2441 4250 2034 4250 
Q 1625 4250 1398 4047 
Q 1172 3844 1172 3481 
z
" transform="scale(0.015625)"/>
       </defs>
       <use xlink:href="#DejaVuSans-2212"/>
       <use xlink:href="#DejaVuSans-38" x="83.789062"/>
       <use xlink:href="#DejaVuSans-35" x="147.412109"/>
      </g>
     </g>
    </g>
    <g id="ytick_8">
     <g id="line2d_15">
      <g>
       <use xlink:href="#m3e69364af8" x="57.6" y="57.115694" style="stroke: #000000; stroke-width: 0.8"/>
      </g>
     </g>
     <g id="text_15">
      <!-- −80 -->
      <g transform="translate(29.495313 60.914913) scale(0.1 -0.1)">
       <use xlink:href="#DejaVuSans-2212"/>
       <use xlink:href="#DejaVuSans-38" x="83.789062"/>
       <use xlink:href="#DejaVuSans-30" x="147.412109"/>
      </g>
     </g>
    </g>
   </g>
   <g id="line2d_16">
    <path d="M 73.832727 53.568 
L 74.918528 124.924335 
L 76.00433 218.219533 
L 77.090131 249.769396 
L 78.175932 217.044922 
L 80.347534 249.401989 
L 81.433335 244.384468 
L 82.519137 246.574693 
L 83.604938 247.504371 
L 85.77654 258.387387 
L 86.862341 246.965919 
L 87.948142 240.53656 
L 89.033943 253.399023 
L 90.119745 261.401658 
L 91.205546 273.113957 
L 92.291347 281.089213 
L 93.377148 281.122169 
L 94.462949 287.862034 
L 95.54875 277.118116 
L 96.634552 277.723748 
L 97.720353 276.119231 
L 98.806154 281.636173 
L 99.891955 283.658626 
L 100.977756 293.98764 
L 102.063557 292.000863 
L 103.149358 291.844506 
L 104.23516 294.169768 
L 105.320961 291.58336 
L 106.406762 292.232576 
L 107.492563 288.351147 
L 108.578364 283.451454 
L 109.664165 282.398836 
L 110.749967 279.591267 
L 111.835768 280.710225 
L 112.921569 283.668646 
L 114.00737 292.353335 
L 115.093171 292.771478 
L 116.178972 292.926367 
L 117.264773 294.026899 
L 118.350575 291.793819 
L 119.436376 288.987912 
L 120.522177 288.784646 
L 121.607978 287.75246 
L 122.693779 289.856355 
L 123.77958 289.207346 
L 125.951183 286.02048 
L 127.036984 284.797293 
L 128.122785 285.099793 
L 129.208586 285.108657 
L 130.294387 282.855508 
L 131.380189 287.200069 
L 133.551791 288.40931 
L 134.637592 289.868699 
L 135.723393 292.451509 
L 137.894995 286.893054 
L 138.980797 288.261261 
L 140.066598 288.922365 
L 141.152399 289.124436 
L 142.2382 289.175603 
L 143.324001 288.381052 
L 144.409802 288.261902 
L 145.495604 290.690391 
L 146.581405 290.866173 
L 147.667206 291.75966 
L 148.753007 293.847474 
L 149.838808 293.944704 
L 150.924609 295.059838 
L 152.01041 295.027625 
L 153.096212 294.495847 
L 154.182013 295.474495 
L 155.267814 293.902839 
L 156.353615 291.695029 
L 157.439416 290.590416 
L 159.611019 290.229961 
L 160.69682 290.322975 
L 161.782621 292.507075 
L 162.868422 293.696439 
L 163.954223 293.57378 
L 165.040024 295.488 
L 166.125825 295.291538 
L 167.211627 293.6812 
L 168.297428 291.415056 
L 169.383229 290.377381 
L 170.46903 290.538314 
L 171.554831 289.296697 
L 172.640632 290.050167 
L 173.726434 288.401419 
L 174.812235 287.200578 
L 175.898036 286.3398 
L 176.983837 285.215466 
L 179.155439 281.638178 
L 180.24124 281.052068 
L 181.327042 281.154929 
L 182.412843 279.052436 
L 183.498644 279.667556 
L 184.584445 279.139979 
L 185.670246 275.421834 
L 186.756047 273.076187 
L 187.841849 274.572666 
L 188.92765 272.617872 
L 190.013451 271.671328 
L 191.099252 271.737039 
L 192.185053 269.487429 
L 193.270854 268.14938 
L 194.356656 266.546768 
L 195.442457 263.998694 
L 196.528258 264.536839 
L 197.614059 267.024266 
L 198.69986 263.306349 
L 199.785661 261.908831 
L 200.871462 259.730391 
L 201.957264 259.714111 
L 204.128866 264.79194 
L 205.214667 266.476493 
L 206.300468 264.597515 
L 207.386269 264.823857 
L 208.472071 263.804089 
L 209.557872 264.954544 
L 210.643673 261.444251 
L 211.729474 261.54382 
L 212.815275 261.275168 
L 213.901076 258.894738 
L 214.986877 258.667945 
L 216.072679 256.390873 
L 217.15848 255.75625 
L 218.244281 256.211721 
L 219.330082 254.724514 
L 220.415883 253.838845 
L 221.501684 252.077164 
L 222.587486 249.179044 
L 223.673287 244.821714 
L 224.759088 242.894089 
L 225.844889 241.377283 
L 226.93069 240.059234 
L 229.102292 238.363154 
L 230.188094 237.422029 
L 231.273895 235.732544 
L 232.359696 232.863424 
L 234.531298 230.996741 
L 235.617099 229.633179 
L 236.702901 228.506877 
L 237.788702 229.2393 
L 238.874503 227.722549 
L 239.960304 228.010771 
L 241.046105 225.305277 
L 242.131906 224.247486 
L 243.217708 223.410252 
L 244.303509 222.07483 
L 245.38931 219.719526 
L 246.475111 220.299027 
L 247.560912 221.029136 
L 248.646713 219.725275 
L 249.732514 217.861123 
L 250.818316 215.41604 
L 251.904117 214.650397 
L 252.989918 213.489854 
L 255.16152 208.567974 
L 256.247321 207.663125 
L 257.333123 205.595811 
L 258.418924 203.247017 
L 259.504725 202.295191 
L 260.590526 200.850557 
L 261.676327 199.720205 
L 262.762128 198.400053 
L 263.847929 196.394457 
L 266.019532 196.923585 
L 267.105333 196.644244 
L 270.362736 191.326387 
L 271.448538 188.400231 
L 272.534339 185.817187 
L 273.62014 184.516341 
L 274.705941 181.424622 
L 275.791742 179.973449 
L 276.877543 179.781086 
L 277.963344 180.351222 
L 279.049146 179.544057 
L 280.134947 177.094006 
L 281.220748 176.764032 
L 282.306549 173.824421 
L 283.39235 173.707765 
L 284.478151 173.386469 
L 285.563953 172.919508 
L 286.649754 172.631228 
L 287.735555 172.822717 
L 288.821356 173.179222 
L 289.907157 173.006575 
L 290.992958 171.146063 
L 293.164561 172.013376 
L 294.250362 172.340564 
L 295.336163 174.029313 
L 296.421964 174.664812 
L 297.507765 174.285456 
L 298.593566 174.369704 
L 300.765169 173.379628 
L 301.85097 174.20314 
L 302.936771 174.504197 
L 304.022572 174.197532 
L 305.108373 175.276814 
L 306.194175 175.203631 
L 307.279976 172.258604 
L 308.365777 172.767224 
L 309.451578 171.695352 
L 310.537379 170.264152 
L 311.62318 167.490671 
L 312.708981 163.643467 
L 313.794783 157.99453 
L 314.880584 157.013291 
L 315.966385 157.055533 
L 317.052186 155.322047 
L 318.137987 153.355281 
L 319.223788 149.592016 
L 320.30959 148.934704 
L 321.395391 147.510548 
L 323.566993 145.555801 
L 324.652794 145.070737 
L 325.738595 145.667081 
L 326.824396 146.481454 
L 327.910198 145.574679 
L 328.995999 145.698699 
L 330.0818 144.86346 
L 331.167601 144.305602 
L 334.425005 141.486315 
L 335.510806 142.73828 
L 336.596607 141.520891 
L 337.682408 142.681568 
L 338.768209 143.617481 
L 339.85401 144.032971 
L 340.939811 145.083113 
L 342.025613 145.462841 
L 343.111414 143.746149 
L 344.197215 144.374554 
L 345.283016 145.767399 
L 346.368817 146.652005 
L 347.454618 143.60142 
L 348.54042 144.067461 
L 349.626221 144.198779 
L 352.883624 143.332338 
L 353.969425 143.360969 
L 355.055227 142.089145 
L 356.141028 141.089862 
L 357.226829 139.933382 
L 358.31263 138.398021 
L 359.398431 137.143008 
L 360.484232 138.074431 
L 361.570033 137.594321 
L 362.655835 137.697309 
L 363.741636 138.433023 
L 364.827437 141.778085 
L 366.999039 141.166754 
L 368.08484 140.028958 
L 369.170642 139.361848 
L 370.256443 138.844835 
L 371.342244 138.457301 
L 372.428045 138.741333 
L 374.599647 138.355367 
L 375.685448 138.468636 
L 376.77125 138.096545 
L 377.857051 138.335343 
L 378.942852 139.174299 
L 381.114454 139.935946 
L 382.200255 140.611638 
L 383.286057 141.118367 
L 385.457659 143.00267 
L 386.54346 143.879081 
L 387.629261 144.546946 
L 388.715062 145.797427 
L 389.800863 147.646938 
L 390.886665 148.410445 
L 391.972466 150.152455 
L 393.058267 151.335457 
L 395.229869 153.187723 
L 398.487273 156.083638 
L 398.487273 156.083638 
" clip-path="url(#pc839669dd1)" style="fill: none; stroke: #1f77b4; stroke-width: 1.5; stroke-linecap: square"/>
   </g>
   <g id="patch_3">
    <path d="M 57.6 307.584 
L 57.6 41.472 
" style="fill: none; stroke: #000000; stroke-width: 0.8; stroke-linejoin: miter; stroke-linecap: square"/>
   </g>
   <g id="patch_4">
    <path d="M 414.72 307.584 
L 414.72 41.472 
" style="fill: none; stroke: #000000; stroke-width: 0.8; stroke-linejoin: miter; stroke-linecap: square"/>
   </g>
   <g id="patch_5">
    <path d="M 57.6 307.584 
L 414.72 307.584 
" style="fill: none; stroke: #000000; stroke-width: 0.8; stroke-linejoin: miter; stroke-linecap: square"/>
   </g>
   <g id="patch_6">
    <path d="M 57.6 41.472 
L 414.72 41.472 
" style="fill: none; stroke: #000000; stroke-width: 0.8; stroke-linejoin: miter; stroke-linecap: square"/>
   </g>
   <g id="text_16">
    <!-- Running average of previous 100 scores -->
    <g transform="translate(115.345313 35.472) scale(0.12 -0.12)">
     <defs>
      <path id="DejaVuSans-52" d="M 2841 2188 
Q 3044 2119 3236 1894 
Q 3428 1669 3622 1275 
L 4263 0 
L 3584 0 
L 2988 1197 
Q 2756 1666 2539 1819 
Q 2322 1972 1947 1972 
L 1259 1972 
L 1259 0 
L 628 0 
L 628 4666 
L 2053 4666 
Q 2853 4666 3247 4331 
Q 3641 3997 3641 3322 
Q 3641 2881 3436 2590 
Q 3231 2300 2841 2188 
z
M 1259 4147 
L 1259 2491 
L 2053 2491 
Q 2509 2491 2742 2702 
Q 2975 2913 2975 3322 
Q 2975 3731 2742 3939 
Q 2509 4147 2053 4147 
L 1259 4147 
z
" transform="scale(0.015625)"/>
      <path id="DejaVuSans-75" d="M 544 1381 
L 544 3500 
L 1119 3500 
L 1119 1403 
Q 1119 906 1312 657 
Q 1506 409 1894 409 
Q 2359 409 2629 706 
Q 2900 1003 2900 1516 
L 2900 3500 
L 3475 3500 
L 3475 0 
L 2900 0 
L 2900 538 
Q 2691 219 2414 64 
Q 2138 -91 1772 -91 
Q 1169 -91 856 284 
Q 544 659 544 1381 
z
M 1991 3584 
L 1991 3584 
z
" transform="scale(0.015625)"/>
      <path id="DejaVuSans-6e" d="M 3513 2113 
L 3513 0 
L 2938 0 
L 2938 2094 
Q 2938 2591 2744 2837 
Q 2550 3084 2163 3084 
Q 1697 3084 1428 2787 
Q 1159 2491 1159 1978 
L 1159 0 
L 581 0 
L 581 3500 
L 1159 3500 
L 1159 2956 
Q 1366 3272 1645 3428 
Q 1925 3584 2291 3584 
Q 2894 3584 3203 3211 
Q 3513 2838 3513 2113 
z
" transform="scale(0.015625)"/>
      <path id="DejaVuSans-69" d="M 603 3500 
L 1178 3500 
L 1178 0 
L 603 0 
L 603 3500 
z
M 603 4863 
L 1178 4863 
L 1178 4134 
L 603 4134 
L 603 4863 
z
" transform="scale(0.015625)"/>
      <path id="DejaVuSans-67" d="M 2906 1791 
Q 2906 2416 2648 2759 
Q 2391 3103 1925 3103 
Q 1463 3103 1205 2759 
Q 947 2416 947 1791 
Q 947 1169 1205 825 
Q 1463 481 1925 481 
Q 2391 481 2648 825 
Q 2906 1169 2906 1791 
z
M 3481 434 
Q 3481 -459 3084 -895 
Q 2688 -1331 1869 -1331 
Q 1566 -1331 1297 -1286 
Q 1028 -1241 775 -1147 
L 775 -588 
Q 1028 -725 1275 -790 
Q 1522 -856 1778 -856 
Q 2344 -856 2625 -561 
Q 2906 -266 2906 331 
L 2906 616 
Q 2728 306 2450 153 
Q 2172 0 1784 0 
Q 1141 0 747 490 
Q 353 981 353 1791 
Q 353 2603 747 3093 
Q 1141 3584 1784 3584 
Q 2172 3584 2450 3431 
Q 2728 3278 2906 2969 
L 2906 3500 
L 3481 3500 
L 3481 434 
z
" transform="scale(0.015625)"/>
      <path id="DejaVuSans-20" transform="scale(0.015625)"/>
      <path id="DejaVuSans-61" d="M 2194 1759 
Q 1497 1759 1228 1600 
Q 959 1441 959 1056 
Q 959 750 1161 570 
Q 1363 391 1709 391 
Q 2188 391 2477 730 
Q 2766 1069 2766 1631 
L 2766 1759 
L 2194 1759 
z
M 3341 1997 
L 3341 0 
L 2766 0 
L 2766 531 
Q 2569 213 2275 61 
Q 1981 -91 1556 -91 
Q 1019 -91 701 211 
Q 384 513 384 1019 
Q 384 1609 779 1909 
Q 1175 2209 1959 2209 
L 2766 2209 
L 2766 2266 
Q 2766 2663 2505 2880 
Q 2244 3097 1772 3097 
Q 1472 3097 1187 3025 
Q 903 2953 641 2809 
L 641 3341 
Q 956 3463 1253 3523 
Q 1550 3584 1831 3584 
Q 2591 3584 2966 3190 
Q 3341 2797 3341 1997 
z
" transform="scale(0.015625)"/>
      <path id="DejaVuSans-76" d="M 191 3500 
L 800 3500 
L 1894 563 
L 2988 3500 
L 3597 3500 
L 2284 0 
L 1503 0 
L 191 3500 
z
" transform="scale(0.015625)"/>
      <path id="DejaVuSans-65" d="M 3597 1894 
L 3597 1613 
L 953 1613 
Q 991 1019 1311 708 
Q 1631 397 2203 397 
Q 2534 397 2845 478 
Q 3156 559 3463 722 
L 3463 178 
Q 3153 47 2828 -22 
Q 2503 -91 2169 -91 
Q 1331 -91 842 396 
Q 353 884 353 1716 
Q 353 2575 817 3079 
Q 1281 3584 2069 3584 
Q 2775 3584 3186 3129 
Q 3597 2675 3597 1894 
z
M 3022 2063 
Q 3016 2534 2758 2815 
Q 2500 3097 2075 3097 
Q 1594 3097 1305 2825 
Q 1016 2553 972 2059 
L 3022 2063 
z
" transform="scale(0.015625)"/>
      <path id="DejaVuSans-72" d="M 2631 2963 
Q 2534 3019 2420 3045 
Q 2306 3072 2169 3072 
Q 1681 3072 1420 2755 
Q 1159 2438 1159 1844 
L 1159 0 
L 581 0 
L 581 3500 
L 1159 3500 
L 1159 2956 
Q 1341 3275 1631 3429 
Q 1922 3584 2338 3584 
Q 2397 3584 2469 3576 
Q 2541 3569 2628 3553 
L 2631 2963 
z
" transform="scale(0.015625)"/>
      <path id="DejaVuSans-6f" d="M 1959 3097 
Q 1497 3097 1228 2736 
Q 959 2375 959 1747 
Q 959 1119 1226 758 
Q 1494 397 1959 397 
Q 2419 397 2687 759 
Q 2956 1122 2956 1747 
Q 2956 2369 2687 2733 
Q 2419 3097 1959 3097 
z
M 1959 3584 
Q 2709 3584 3137 3096 
Q 3566 2609 3566 1747 
Q 3566 888 3137 398 
Q 2709 -91 1959 -91 
Q 1206 -91 779 398 
Q 353 888 353 1747 
Q 353 2609 779 3096 
Q 1206 3584 1959 3584 
z
" transform="scale(0.015625)"/>
      <path id="DejaVuSans-66" d="M 2375 4863 
L 2375 4384 
L 1825 4384 
Q 1516 4384 1395 4259 
Q 1275 4134 1275 3809 
L 1275 3500 
L 2222 3500 
L 2222 3053 
L 1275 3053 
L 1275 0 
L 697 0 
L 697 3053 
L 147 3053 
L 147 3500 
L 697 3500 
L 697 3744 
Q 697 4328 969 4595 
Q 1241 4863 1831 4863 
L 2375 4863 
z
" transform="scale(0.015625)"/>
      <path id="DejaVuSans-70" d="M 1159 525 
L 1159 -1331 
L 581 -1331 
L 581 3500 
L 1159 3500 
L 1159 2969 
Q 1341 3281 1617 3432 
Q 1894 3584 2278 3584 
Q 2916 3584 3314 3078 
Q 3713 2572 3713 1747 
Q 3713 922 3314 415 
Q 2916 -91 2278 -91 
Q 1894 -91 1617 61 
Q 1341 213 1159 525 
z
M 3116 1747 
Q 3116 2381 2855 2742 
Q 2594 3103 2138 3103 
Q 1681 3103 1420 2742 
Q 1159 2381 1159 1747 
Q 1159 1113 1420 752 
Q 1681 391 2138 391 
Q 2594 391 2855 752 
Q 3116 1113 3116 1747 
z
" transform="scale(0.015625)"/>
      <path id="DejaVuSans-73" d="M 2834 3397 
L 2834 2853 
Q 2591 2978 2328 3040 
Q 2066 3103 1784 3103 
Q 1356 3103 1142 2972 
Q 928 2841 928 2578 
Q 928 2378 1081 2264 
Q 1234 2150 1697 2047 
L 1894 2003 
Q 2506 1872 2764 1633 
Q 3022 1394 3022 966 
Q 3022 478 2636 193 
Q 2250 -91 1575 -91 
Q 1294 -91 989 -36 
Q 684 19 347 128 
L 347 722 
Q 666 556 975 473 
Q 1284 391 1588 391 
Q 1994 391 2212 530 
Q 2431 669 2431 922 
Q 2431 1156 2273 1281 
Q 2116 1406 1581 1522 
L 1381 1569 
Q 847 1681 609 1914 
Q 372 2147 372 2553 
Q 372 3047 722 3315 
Q 1072 3584 1716 3584 
Q 2034 3584 2315 3537 
Q 2597 3491 2834 3397 
z
" transform="scale(0.015625)"/>
      <path id="DejaVuSans-63" d="M 3122 3366 
L 3122 2828 
Q 2878 2963 2633 3030 
Q 2388 3097 2138 3097 
Q 1578 3097 1268 2742 
Q 959 2388 959 1747 
Q 959 1106 1268 751 
Q 1578 397 2138 397 
Q 2388 397 2633 464 
Q 2878 531 3122 666 
L 3122 134 
Q 2881 22 2623 -34 
Q 2366 -91 2075 -91 
Q 1284 -91 818 406 
Q 353 903 353 1747 
Q 353 2603 823 3093 
Q 1294 3584 2113 3584 
Q 2378 3584 2631 3529 
Q 2884 3475 3122 3366 
z
" transform="scale(0.015625)"/>
     </defs>
     <use xlink:href="#DejaVuSans-52"/>
     <use xlink:href="#DejaVuSans-75" x="64.982422"/>
     <use xlink:href="#DejaVuSans-6e" x="128.361328"/>
     <use xlink:href="#DejaVuSans-6e" x="191.740234"/>
     <use xlink:href="#DejaVuSans-69" x="255.119141"/>
     <use xlink:href="#DejaVuSans-6e" x="282.902344"/>
     <use xlink:href="#DejaVuSans-67" x="346.28125"/>
     <use xlink:href="#DejaVuSans-20" x="409.757812"/>
     <use xlink:href="#DejaVuSans-61" x="441.544922"/>
     <use xlink:href="#DejaVuSans-76" x="502.824219"/>
     <use xlink:href="#DejaVuSans-65" x="562.003906"/>
     <use xlink:href="#DejaVuSans-72" x="623.527344"/>
     <use xlink:href="#DejaVuSans-61" x="664.640625"/>
     <use xlink:href="#DejaVuSans-67" x="725.919922"/>
     <use xlink:href="#DejaVuSans-65" x="789.396484"/>
     <use xlink:href="#DejaVuSans-20" x="850.919922"/>
     <use xlink:href="#DejaVuSans-6f" x="882.707031"/>
     <use xlink:href="#DejaVuSans-66" x="943.888672"/>
     <use xlink:href="#DejaVuSans-20" x="979.09375"/>
     <use xlink:href="#DejaVuSans-70" x="1010.880859"/>
     <use xlink:href="#DejaVuSans-72" x="1074.357422"/>
     <use xlink:href="#DejaVuSans-65" x="1113.220703"/>
     <use xlink:href="#DejaVuSans-76" x="1174.744141"/>
     <use xlink:href="#DejaVuSans-69" x="1233.923828"/>
     <use xlink:href="#DejaVuSans-6f" x="1261.707031"/>
     <use xlink:href="#DejaVuSans-75" x="1322.888672"/>
     <use xlink:href="#DejaVuSans-73" x="1386.267578"/>
     <use xlink:href="#DejaVuSans-20" x="1438.367188"/>
     <use xlink:href="#DejaVuSans-31" x="1470.154297"/>
     <use xlink:href="#DejaVuSans-30" x="1533.777344"/>
     <use xlink:href="#DejaVuSans-30" x="1597.400391"/>
     <use xlink:href="#DejaVuSans-20" x="1661.023438"/>
     <use xlink:href="#DejaVuSans-73" x="1692.810547"/>
     <use xlink:href="#DejaVuSans-63" x="1744.910156"/>
     <use xlink:href="#DejaVuSans-6f" x="1799.890625"/>
     <use xlink:href="#DejaVuSans-72" x="1861.072266"/>
     <use xlink:href="#DejaVuSans-65" x="1899.935547"/>
     <use xlink:href="#DejaVuSans-73" x="1961.458984"/>
    </g>
   </g>
  </g>
 </g>
 <defs>
  <clipPath id="pc839669dd1">
   <rect x="57.6" y="41.472" width="357.12" height="266.112"/>
  </clipPath>
 </defs>
</svg>
