<?xml version="1.0" encoding="utf-8" standalone="no"?>
<!DOCTYPE svg PUBLIC "-//W3C//DTD SVG 1.1//EN"
  "http://www.w3.org/Graphics/SVG/1.1/DTD/svg11.dtd">
<svg xmlns:xlink="http://www.w3.org/1999/xlink" width="460.8pt" height="345.6pt" viewBox="0 0 460.8 345.6" xmlns="http://www.w3.org/2000/svg" version="1.1">
 <metadata>
  <rdf:RDF xmlns:dc="http://purl.org/dc/elements/1.1/" xmlns:cc="http://creativecommons.org/ns#" xmlns:rdf="http://www.w3.org/1999/02/22-rdf-syntax-ns#">
   <cc:Work>
    <dc:type rdf:resource="http://purl.org/dc/dcmitype/StillImage"/>
    <dc:date>2023-10-30T00:50:05.928088</dc:date>
    <dc:format>image/svg+xml</dc:format>
    <dc:creator>
     <cc:Agent>
      <dc:title>Matplotlib v3.8.0, https://matplotlib.org/</dc:title>
     </cc:Agent>
    </dc:creator>
   </cc:Work>
  </rdf:RDF>
 </metadata>
 <defs>
  <style type="text/css">*{stroke-linejoin: round; stroke-linecap: butt}</style>
 </defs>
 <g id="figure_1">
  <g id="patch_1">
   <path d="M 0 345.6 
L 460.8 345.6 
L 460.8 0 
L 0 0 
z
" style="fill: #ffffff"/>
  </g>
  <g id="axes_1">
   <g id="patch_2">
    <path d="M 57.6 307.584 
L 414.72 307.584 
L 414.72 41.472 
L 57.6 41.472 
z
" style="fill: #ffffff"/>
   </g>
   <g id="matplotlib.axis_1">
    <g id="xtick_1">
     <g id="line2d_1">
      <defs>
       <path id="m222c9cdc14" d="M 0 0 
L 0 3.5 
" style="stroke: #000000; stroke-width: 0.8"/>
      </defs>
      <g>
       <use xlink:href="#m222c9cdc14" x="72.746926" y="307.584" style="stroke: #000000; stroke-width: 0.8"/>
      </g>
     </g>
     <g id="text_1">
      <!-- 0 -->
      <g transform="translate(69.565676 322.182437) scale(0.1 -0.1)">
       <defs>
        <path id="DejaVuSans-30" d="M 2034 4250 
Q 1547 4250 1301 3770 
Q 1056 3291 1056 2328 
Q 1056 1369 1301 889 
Q 1547 409 2034 409 
Q 2525 409 2770 889 
Q 3016 1369 3016 2328 
Q 3016 3291 2770 3770 
Q 2525 4250 2034 4250 
z
M 2034 4750 
Q 2819 4750 3233 4129 
Q 3647 3509 3647 2328 
Q 3647 1150 3233 529 
Q 2819 -91 2034 -91 
Q 1250 -91 836 529 
Q 422 1150 422 2328 
Q 422 3509 836 4129 
Q 1250 4750 2034 4750 
z
" transform="scale(0.015625)"/>
       </defs>
       <use xlink:href="#DejaVuSans-30"/>
      </g>
     </g>
    </g>
    <g id="xtick_2">
     <g id="line2d_2">
      <g>
       <use xlink:href="#m222c9cdc14" x="127.036984" y="307.584" style="stroke: #000000; stroke-width: 0.8"/>
      </g>
     </g>
     <g id="text_2">
      <!-- 50 -->
      <g transform="translate(120.674484 322.182437) scale(0.1 -0.1)">
       <defs>
        <path id="DejaVuSans-35" d="M 691 4666 
L 3169 4666 
L 3169 4134 
L 1269 4134 
L 1269 2991 
Q 1406 3038 1543 3061 
Q 1681 3084 1819 3084 
Q 2600 3084 3056 2656 
Q 3513 2228 3513 1497 
Q 3513 744 3044 326 
Q 2575 -91 1722 -91 
Q 1428 -91 1123 -41 
Q 819 9 494 109 
L 494 744 
Q 775 591 1075 516 
Q 1375 441 1709 441 
Q 2250 441 2565 725 
Q 2881 1009 2881 1497 
Q 2881 1984 2565 2268 
Q 2250 2553 1709 2553 
Q 1456 2553 1204 2497 
Q 953 2441 691 2322 
L 691 4666 
z
" transform="scale(0.015625)"/>
       </defs>
       <use xlink:href="#DejaVuSans-35"/>
       <use xlink:href="#DejaVuSans-30" x="63.623047"/>
      </g>
     </g>
    </g>
    <g id="xtick_3">
     <g id="line2d_3">
      <g>
       <use xlink:href="#m222c9cdc14" x="181.327042" y="307.584" style="stroke: #000000; stroke-width: 0.8"/>
      </g>
     </g>
     <g id="text_3">
      <!-- 100 -->
      <g transform="translate(171.783292 322.182437) scale(0.1 -0.1)">
       <defs>
        <path id="DejaVuSans-31" d="M 794 531 
L 1825 531 
L 1825 4091 
L 703 3866 
L 703 4441 
L 1819 4666 
L 2450 4666 
L 2450 531 
L 3481 531 
L 3481 0 
L 794 0 
L 794 531 
z
" transform="scale(0.015625)"/>
       </defs>
       <use xlink:href="#DejaVuSans-31"/>
       <use xlink:href="#DejaVuSans-30" x="63.623047"/>
       <use xlink:href="#DejaVuSans-30" x="127.246094"/>
      </g>
     </g>
    </g>
    <g id="xtick_4">
     <g id="line2d_4">
      <g>
       <use xlink:href="#m222c9cdc14" x="235.617099" y="307.584" style="stroke: #000000; stroke-width: 0.8"/>
      </g>
     </g>
     <g id="text_4">
      <!-- 150 -->
      <g transform="translate(226.073349 322.182437) scale(0.1 -0.1)">
       <use xlink:href="#DejaVuSans-31"/>
       <use xlink:href="#DejaVuSans-35" x="63.623047"/>
       <use xlink:href="#DejaVuSans-30" x="127.246094"/>
      </g>
     </g>
    </g>
    <g id="xtick_5">
     <g id="line2d_5">
      <g>
       <use xlink:href="#m222c9cdc14" x="289.907157" y="307.584" style="stroke: #000000; stroke-width: 0.8"/>
      </g>
     </g>
     <g id="text_5">
      <!-- 200 -->
      <g transform="translate(280.363407 322.182437) scale(0.1 -0.1)">
       <defs>
        <path id="DejaVuSans-32" d="M 1228 531 
L 3431 531 
L 3431 0 
L 469 0 
L 469 531 
Q 828 903 1448 1529 
Q 2069 2156 2228 2338 
Q 2531 2678 2651 2914 
Q 2772 3150 2772 3378 
Q 2772 3750 2511 3984 
Q 2250 4219 1831 4219 
Q 1534 4219 1204 4116 
Q 875 4013 500 3803 
L 500 4441 
Q 881 4594 1212 4672 
Q 1544 4750 1819 4750 
Q 2544 4750 2975 4387 
Q 3406 4025 3406 3419 
Q 3406 3131 3298 2873 
Q 3191 2616 2906 2266 
Q 2828 2175 2409 1742 
Q 1991 1309 1228 531 
z
" transform="scale(0.015625)"/>
       </defs>
       <use xlink:href="#DejaVuSans-32"/>
       <use xlink:href="#DejaVuSans-30" x="63.623047"/>
       <use xlink:href="#DejaVuSans-30" x="127.246094"/>
      </g>
     </g>
    </g>
    <g id="xtick_6">
     <g id="line2d_6">
      <g>
       <use xlink:href="#m222c9cdc14" x="344.197215" y="307.584" style="stroke: #000000; stroke-width: 0.8"/>
      </g>
     </g>
     <g id="text_6">
      <!-- 250 -->
      <g transform="translate(334.653465 322.182437) scale(0.1 -0.1)">
       <use xlink:href="#DejaVuSans-32"/>
       <use xlink:href="#DejaVuSans-35" x="63.623047"/>
       <use xlink:href="#DejaVuSans-30" x="127.246094"/>
      </g>
     </g>
    </g>
    <g id="xtick_7">
     <g id="line2d_7">
      <g>
       <use xlink:href="#m222c9cdc14" x="398.487273" y="307.584" style="stroke: #000000; stroke-width: 0.8"/>
      </g>
     </g>
     <g id="text_7">
      <!-- 300 -->
      <g transform="translate(388.943523 322.182437) scale(0.1 -0.1)">
       <defs>
        <path id="DejaVuSans-33" d="M 2597 2516 
Q 3050 2419 3304 2112 
Q 3559 1806 3559 1356 
Q 3559 666 3084 287 
Q 2609 -91 1734 -91 
Q 1441 -91 1130 -33 
Q 819 25 488 141 
L 488 750 
Q 750 597 1062 519 
Q 1375 441 1716 441 
Q 2309 441 2620 675 
Q 2931 909 2931 1356 
Q 2931 1769 2642 2001 
Q 2353 2234 1838 2234 
L 1294 2234 
L 1294 2753 
L 1863 2753 
Q 2328 2753 2575 2939 
Q 2822 3125 2822 3475 
Q 2822 3834 2567 4026 
Q 2313 4219 1838 4219 
Q 1578 4219 1281 4162 
Q 984 4106 628 3988 
L 628 4550 
Q 988 4650 1302 4700 
Q 1616 4750 1894 4750 
Q 2613 4750 3031 4423 
Q 3450 4097 3450 3541 
Q 3450 3153 3228 2886 
Q 3006 2619 2597 2516 
z
" transform="scale(0.015625)"/>
       </defs>
       <use xlink:href="#DejaVuSans-33"/>
       <use xlink:href="#DejaVuSans-30" x="63.623047"/>
       <use xlink:href="#DejaVuSans-30" x="127.246094"/>
      </g>
     </g>
    </g>
   </g>
   <g id="matplotlib.axis_2">
    <g id="ytick_1">
     <g id="line2d_8">
      <defs>
       <path id="m4926361e85" d="M 0 0 
L -3.5 0 
" style="stroke: #000000; stroke-width: 0.8"/>
      </defs>
      <g>
       <use xlink:href="#m4926361e85" x="57.6" y="280.89898" style="stroke: #000000; stroke-width: 0.8"/>
      </g>
     </g>
     <g id="text_8">
      <!-- −60 -->
      <g transform="translate(29.495313 284.698199) scale(0.1 -0.1)">
       <defs>
        <path id="DejaVuSans-2212" d="M 678 2272 
L 4684 2272 
L 4684 1741 
L 678 1741 
L 678 2272 
z
" transform="scale(0.015625)"/>
        <path id="DejaVuSans-36" d="M 2113 2584 
Q 1688 2584 1439 2293 
Q 1191 2003 1191 1497 
Q 1191 994 1439 701 
Q 1688 409 2113 409 
Q 2538 409 2786 701 
Q 3034 994 3034 1497 
Q 3034 2003 2786 2293 
Q 2538 2584 2113 2584 
z
M 3366 4563 
L 3366 3988 
Q 3128 4100 2886 4159 
Q 2644 4219 2406 4219 
Q 1781 4219 1451 3797 
Q 1122 3375 1075 2522 
Q 1259 2794 1537 2939 
Q 1816 3084 2150 3084 
Q 2853 3084 3261 2657 
Q 3669 2231 3669 1497 
Q 3669 778 3244 343 
Q 2819 -91 2113 -91 
Q 1303 -91 875 529 
Q 447 1150 447 2328 
Q 447 3434 972 4092 
Q 1497 4750 2381 4750 
Q 2619 4750 2861 4703 
Q 3103 4656 3366 4563 
z
" transform="scale(0.015625)"/>
       </defs>
       <use xlink:href="#DejaVuSans-2212"/>
       <use xlink:href="#DejaVuSans-36" x="83.789062"/>
       <use xlink:href="#DejaVuSans-30" x="147.412109"/>
      </g>
     </g>
    </g>
    <g id="ytick_2">
     <g id="line2d_9">
      <g>
       <use xlink:href="#m4926361e85" x="57.6" y="247.687738" style="stroke: #000000; stroke-width: 0.8"/>
      </g>
     </g>
     <g id="text_9">
      <!-- −55 -->
      <g transform="translate(29.495313 251.486957) scale(0.1 -0.1)">
       <use xlink:href="#DejaVuSans-2212"/>
       <use xlink:href="#DejaVuSans-35" x="83.789062"/>
       <use xlink:href="#DejaVuSans-35" x="147.412109"/>
      </g>
     </g>
    </g>
    <g id="ytick_3">
     <g id="line2d_10">
      <g>
       <use xlink:href="#m4926361e85" x="57.6" y="214.476497" style="stroke: #000000; stroke-width: 0.8"/>
      </g>
     </g>
     <g id="text_10">
      <!-- −50 -->
      <g transform="translate(29.495313 218.275716) scale(0.1 -0.1)">
       <use xlink:href="#DejaVuSans-2212"/>
       <use xlink:href="#DejaVuSans-35" x="83.789062"/>
       <use xlink:href="#DejaVuSans-30" x="147.412109"/>
      </g>
     </g>
    </g>
    <g id="ytick_4">
     <g id="line2d_11">
      <g>
       <use xlink:href="#m4926361e85" x="57.6" y="181.265255" style="stroke: #000000; stroke-width: 0.8"/>
      </g>
     </g>
     <g id="text_11">
      <!-- −45 -->
      <g transform="translate(29.495313 185.064474) scale(0.1 -0.1)">
       <defs>
        <path id="DejaVuSans-34" d="M 2419 4116 
L 825 1625 
L 2419 1625 
L 2419 4116 
z
M 2253 4666 
L 3047 4666 
L 3047 1625 
L 3713 1625 
L 3713 1100 
L 3047 1100 
L 3047 0 
L 2419 0 
L 2419 1100 
L 313 1100 
L 313 1709 
L 2253 4666 
z
" transform="scale(0.015625)"/>
       </defs>
       <use xlink:href="#DejaVuSans-2212"/>
       <use xlink:href="#DejaVuSans-34" x="83.789062"/>
       <use xlink:href="#DejaVuSans-35" x="147.412109"/>
      </g>
     </g>
    </g>
    <g id="ytick_5">
     <g id="line2d_12">
      <g>
       <use xlink:href="#m4926361e85" x="57.6" y="148.054014" style="stroke: #000000; stroke-width: 0.8"/>
      </g>
     </g>
     <g id="text_12">
      <!-- −40 -->
      <g transform="translate(29.495313 151.853233) scale(0.1 -0.1)">
       <use xlink:href="#DejaVuSans-2212"/>
       <use xlink:href="#DejaVuSans-34" x="83.789062"/>
       <use xlink:href="#DejaVuSans-30" x="147.412109"/>
      </g>
     </g>
    </g>
    <g id="ytick_6">
     <g id="line2d_13">
      <g>
       <use xlink:href="#m4926361e85" x="57.6" y="114.842772" style="stroke: #000000; stroke-width: 0.8"/>
      </g>
     </g>
     <g id="text_13">
      <!-- −35 -->
      <g transform="translate(29.495313 118.641991) scale(0.1 -0.1)">
       <use xlink:href="#DejaVuSans-2212"/>
       <use xlink:href="#DejaVuSans-33" x="83.789062"/>
       <use xlink:href="#DejaVuSans-35" x="147.412109"/>
      </g>
     </g>
    </g>
    <g id="ytick_7">
     <g id="line2d_14">
      <g>
       <use xlink:href="#m4926361e85" x="57.6" y="81.631531" style="stroke: #000000; stroke-width: 0.8"/>
      </g>
     </g>
     <g id="text_14">
      <!-- −30 -->
      <g transform="translate(29.495313 85.430749) scale(0.1 -0.1)">
       <use xlink:href="#DejaVuSans-2212"/>
       <use xlink:href="#DejaVuSans-33" x="83.789062"/>
       <use xlink:href="#DejaVuSans-30" x="147.412109"/>
      </g>
     </g>
    </g>
    <g id="ytick_8">
     <g id="line2d_15">
      <g>
       <use xlink:href="#m4926361e85" x="57.6" y="48.420289" style="stroke: #000000; stroke-width: 0.8"/>
      </g>
     </g>
     <g id="text_15">
      <!-- −25 -->
      <g transform="translate(29.495313 52.219508) scale(0.1 -0.1)">
       <use xlink:href="#DejaVuSans-2212"/>
       <use xlink:href="#DejaVuSans-32" x="83.789062"/>
       <use xlink:href="#DejaVuSans-35" x="147.412109"/>
      </g>
     </g>
    </g>
   </g>
   <g id="line2d_16">
    <path d="M 73.832727 263.667257 
L 74.918528 183.076044 
L 76.00433 173.379842 
L 77.090131 225.452381 
L 78.175932 196.083348 
L 79.261733 220.987243 
L 80.347534 265.218048 
L 81.433335 295.488 
L 82.519137 293.773745 
L 83.604938 282.459829 
L 84.690739 291.90376 
L 85.77654 279.617344 
L 86.862341 264.220424 
L 87.948142 253.755292 
L 89.033943 256.116256 
L 90.119745 264.446008 
L 91.205546 255.605639 
L 92.291347 254.63569 
L 93.377148 258.087262 
L 94.462949 248.611041 
L 95.54875 245.23507 
L 96.634552 253.226864 
L 97.720353 247.2963 
L 98.806154 250.653576 
L 99.891955 248.848446 
L 100.977756 258.805677 
L 102.063557 256.638127 
L 103.149358 255.031732 
L 104.23516 252.880777 
L 105.320961 246.263422 
L 106.406762 246.924681 
L 107.492563 242.966471 
L 108.578364 238.363195 
L 110.749967 232.49246 
L 112.921569 227.476494 
L 114.00737 237.384093 
L 115.093171 233.569514 
L 116.178972 232.036838 
L 117.264773 234.058074 
L 118.350575 231.465342 
L 119.436376 233.697709 
L 120.522177 238.446888 
L 121.607978 247.591772 
L 122.693779 250.192872 
L 123.77958 252.112743 
L 124.865382 251.356559 
L 125.951183 247.295356 
L 127.036984 245.560849 
L 128.122785 245.375897 
L 129.208586 242.29558 
L 130.294387 242.350737 
L 131.380189 241.933988 
L 132.46599 238.911317 
L 133.551791 240.683974 
L 134.637592 238.188818 
L 135.723393 241.107656 
L 136.809194 238.623017 
L 137.894995 239.578068 
L 138.980797 236.746076 
L 140.066598 238.980953 
L 141.152399 242.829268 
L 142.2382 240.672053 
L 143.324001 242.40297 
L 144.409802 241.667345 
L 145.495604 244.107349 
L 146.581405 241.327964 
L 147.667206 240.198111 
L 148.753007 241.568476 
L 149.838808 238.205532 
L 150.924609 243.725976 
L 152.01041 242.632042 
L 153.096212 242.651721 
L 154.182013 240.795743 
L 155.267814 239.188684 
L 156.353615 237.110958 
L 157.439416 237.074833 
L 158.525217 235.981503 
L 159.611019 235.454328 
L 160.69682 234.092805 
L 161.782621 231.822777 
L 162.868422 231.232591 
L 166.125825 227.163904 
L 169.383229 223.587456 
L 170.46903 222.79464 
L 171.554831 221.575541 
L 172.640632 221.893527 
L 173.726434 220.383322 
L 174.812235 219.633871 
L 178.069638 215.489627 
L 179.155439 213.798073 
L 180.24124 213.929823 
L 181.327042 213.533946 
L 182.412843 212.531116 
L 183.498644 211.025579 
L 184.584445 211.420864 
L 185.670246 211.274565 
L 186.756047 208.966881 
L 187.841849 209.507658 
L 188.92765 207.329919 
L 190.013451 202.555376 
L 191.099252 198.620115 
L 192.185053 196.592572 
L 193.270854 196.124345 
L 194.356656 192.893425 
L 195.442457 192.860423 
L 196.528258 193.360733 
L 197.614059 193.259018 
L 198.69986 191.252214 
L 199.785661 188.839275 
L 200.871462 188.361568 
L 201.957264 189.275169 
L 203.043065 187.130962 
L 204.128866 187.758286 
L 205.214667 188.176119 
L 206.300468 185.6311 
L 207.386269 185.194466 
L 208.472071 184.052494 
L 209.557872 182.595037 
L 210.643673 178.383148 
L 211.729474 176.755776 
L 212.815275 175.851637 
L 213.901076 175.189195 
L 214.986877 175.627098 
L 216.072679 174.616564 
L 217.15848 174.568736 
L 218.244281 175.340314 
L 219.330082 175.149751 
L 220.415883 174.316734 
L 221.501684 174.219222 
L 222.587486 174.266286 
L 223.673287 169.154703 
L 224.759088 169.914563 
L 225.844889 169.46993 
L 226.93069 167.878776 
L 228.016491 167.649715 
L 229.102292 165.865778 
L 230.188094 162.493601 
L 231.273895 156.808835 
L 232.359696 154.438818 
L 233.445497 151.716469 
L 234.531298 151.19735 
L 235.617099 151.822509 
L 236.702901 151.437977 
L 237.788702 149.884149 
L 238.874503 149.490079 
L 239.960304 147.806059 
L 241.046105 146.654825 
L 242.131906 146.67566 
L 243.217708 143.651142 
L 244.303509 143.751879 
L 245.38931 140.470733 
L 246.475111 140.586067 
L 247.560912 138.646334 
L 248.646713 138.238134 
L 249.732514 135.261923 
L 250.818316 131.498986 
L 251.904117 131.123906 
L 252.989918 128.517259 
L 254.075719 127.49583 
L 255.16152 124.547193 
L 256.247321 125.527636 
L 257.333123 124.950033 
L 258.418924 122.714398 
L 259.504725 123.67746 
L 260.590526 119.540114 
L 261.676327 118.857445 
L 262.762128 117.756478 
L 263.847929 118.337146 
L 264.933731 118.588959 
L 266.019532 119.025793 
L 267.105333 118.046781 
L 268.191134 117.957248 
L 269.276935 117.086996 
L 270.362736 116.960622 
L 271.448538 117.612407 
L 273.62014 116.929279 
L 277.963344 115.544893 
L 279.049146 114.917175 
L 280.134947 115.248649 
L 281.220748 114.956613 
L 282.306549 113.097707 
L 283.39235 113.647702 
L 284.478151 113.985206 
L 285.563953 114.013422 
L 286.649754 114.383613 
L 287.735555 115.113334 
L 288.821356 116.03009 
L 290.992958 112.880119 
L 293.164561 112.714217 
L 294.250362 111.705397 
L 295.336163 112.928061 
L 296.421964 111.976136 
L 297.507765 111.327788 
L 298.593566 110.922436 
L 299.679368 111.328936 
L 300.765169 111.506611 
L 301.85097 111.560216 
L 302.936771 110.609153 
L 304.022572 110.436556 
L 306.194175 108.991545 
L 307.279976 108.524911 
L 308.365777 108.27445 
L 309.451578 107.172977 
L 310.537379 107.05497 
L 311.62318 104.159899 
L 313.794783 102.697274 
L 314.880584 100.617386 
L 315.966385 99.35042 
L 317.052186 99.14734 
L 318.137987 97.856057 
L 319.223788 97.681169 
L 320.30959 97.173634 
L 321.395391 96.992767 
L 322.481192 96.384126 
L 323.566993 95.453704 
L 324.652794 94.880461 
L 326.824396 93.355971 
L 327.910198 91.756645 
L 328.995999 91.152358 
L 330.0818 91.257504 
L 331.167601 90.291008 
L 332.253402 89.488071 
L 335.510806 87.63551 
L 336.596607 86.675358 
L 337.682408 86.196032 
L 338.768209 85.33768 
L 339.85401 85.032987 
L 340.939811 84.380278 
L 342.025613 83.427984 
L 343.111414 83.265379 
L 344.197215 82.179411 
L 345.283016 81.469636 
L 346.368817 80.92851 
L 347.454618 81.116324 
L 348.54042 81.155186 
L 349.626221 80.91557 
L 350.712022 80.384061 
L 351.797823 80.118124 
L 352.883624 80.298598 
L 353.969425 79.8197 
L 355.055227 79.570652 
L 356.141028 78.75468 
L 357.226829 78.357775 
L 358.31263 78.3819 
L 359.398431 78.128923 
L 360.484232 77.312203 
L 361.570033 77.154255 
L 363.741636 76.35017 
L 364.827437 75.791719 
L 365.913238 74.769916 
L 369.170642 73.14293 
L 370.256443 71.459026 
L 372.428045 69.760098 
L 373.513846 68.611616 
L 375.685448 66.897354 
L 377.857051 65.092119 
L 380.028653 63.939091 
L 381.114454 63.316823 
L 382.200255 62.394941 
L 383.286057 62.06868 
L 384.371858 61.870372 
L 385.457659 61.403652 
L 388.715062 60.589062 
L 389.800863 59.254595 
L 390.886665 58.943414 
L 391.972466 58.823127 
L 393.058267 57.971025 
L 394.144068 56.653291 
L 395.229869 56.112548 
L 396.31567 55.403731 
L 398.487273 53.568 
L 398.487273 53.568 
" clip-path="url(#p0c4e0ad01c)" style="fill: none; stroke: #1f77b4; stroke-width: 1.5; stroke-linecap: square"/>
   </g>
   <g id="patch_3">
    <path d="M 57.6 307.584 
L 57.6 41.472 
" style="fill: none; stroke: #000000; stroke-width: 0.8; stroke-linejoin: miter; stroke-linecap: square"/>
   </g>
   <g id="patch_4">
    <path d="M 414.72 307.584 
L 414.72 41.472 
" style="fill: none; stroke: #000000; stroke-width: 0.8; stroke-linejoin: miter; stroke-linecap: square"/>
   </g>
   <g id="patch_5">
    <path d="M 57.6 307.584 
L 414.72 307.584 
" style="fill: none; stroke: #000000; stroke-width: 0.8; stroke-linejoin: miter; stroke-linecap: square"/>
   </g>
   <g id="patch_6">
    <path d="M 57.6 41.472 
L 414.72 41.472 
" style="fill: none; stroke: #000000; stroke-width: 0.8; stroke-linejoin: miter; stroke-linecap: square"/>
   </g>
   <g id="text_16">
    <!-- Running average of previous 100 scores -->
    <g transform="translate(115.345313 35.472) scale(0.12 -0.12)">
     <defs>
      <path id="DejaVuSans-52" d="M 2841 2188 
Q 3044 2119 3236 1894 
Q 3428 1669 3622 1275 
L 4263 0 
L 3584 0 
L 2988 1197 
Q 2756 1666 2539 1819 
Q 2322 1972 1947 1972 
L 1259 1972 
L 1259 0 
L 628 0 
L 628 4666 
L 2053 4666 
Q 2853 4666 3247 4331 
Q 3641 3997 3641 3322 
Q 3641 2881 3436 2590 
Q 3231 2300 2841 2188 
z
M 1259 4147 
L 1259 2491 
L 2053 2491 
Q 2509 2491 2742 2702 
Q 2975 2913 2975 3322 
Q 2975 3731 2742 3939 
Q 2509 4147 2053 4147 
L 1259 4147 
z
" transform="scale(0.015625)"/>
      <path id="DejaVuSans-75" d="M 544 1381 
L 544 3500 
L 1119 3500 
L 1119 1403 
Q 1119 906 1312 657 
Q 1506 409 1894 409 
Q 2359 409 2629 706 
Q 2900 1003 2900 1516 
L 2900 3500 
L 3475 3500 
L 3475 0 
L 2900 0 
L 2900 538 
Q 2691 219 2414 64 
Q 2138 -91 1772 -91 
Q 1169 -91 856 284 
Q 544 659 544 1381 
z
M 1991 3584 
L 1991 3584 
z
" transform="scale(0.015625)"/>
      <path id="DejaVuSans-6e" d="M 3513 2113 
L 3513 0 
L 2938 0 
L 2938 2094 
Q 2938 2591 2744 2837 
Q 2550 3084 2163 3084 
Q 1697 3084 1428 2787 
Q 1159 2491 1159 1978 
L 1159 0 
L 581 0 
L 581 3500 
L 1159 3500 
L 1159 2956 
Q 1366 3272 1645 3428 
Q 1925 3584 2291 3584 
Q 2894 3584 3203 3211 
Q 3513 2838 3513 2113 
z
" transform="scale(0.015625)"/>
      <path id="DejaVuSans-69" d="M 603 3500 
L 1178 3500 
L 1178 0 
L 603 0 
L 603 3500 
z
M 603 4863 
L 1178 4863 
L 1178 4134 
L 603 4134 
L 603 4863 
z
" transform="scale(0.015625)"/>
      <path id="DejaVuSans-67" d="M 2906 1791 
Q 2906 2416 2648 2759 
Q 2391 3103 1925 3103 
Q 1463 3103 1205 2759 
Q 947 2416 947 1791 
Q 947 1169 1205 825 
Q 1463 481 1925 481 
Q 2391 481 2648 825 
Q 2906 1169 2906 1791 
z
M 3481 434 
Q 3481 -459 3084 -895 
Q 2688 -1331 1869 -1331 
Q 1566 -1331 1297 -1286 
Q 1028 -1241 775 -1147 
L 775 -588 
Q 1028 -725 1275 -790 
Q 1522 -856 1778 -856 
Q 2344 -856 2625 -561 
Q 2906 -266 2906 331 
L 2906 616 
Q 2728 306 2450 153 
Q 2172 0 1784 0 
Q 1141 0 747 490 
Q 353 981 353 1791 
Q 353 2603 747 3093 
Q 1141 3584 1784 3584 
Q 2172 3584 2450 3431 
Q 2728 3278 2906 2969 
L 2906 3500 
L 3481 3500 
L 3481 434 
z
" transform="scale(0.015625)"/>
      <path id="DejaVuSans-20" transform="scale(0.015625)"/>
      <path id="DejaVuSans-61" d="M 2194 1759 
Q 1497 1759 1228 1600 
Q 959 1441 959 1056 
Q 959 750 1161 570 
Q 1363 391 1709 391 
Q 2188 391 2477 730 
Q 2766 1069 2766 1631 
L 2766 1759 
L 2194 1759 
z
M 3341 1997 
L 3341 0 
L 2766 0 
L 2766 531 
Q 2569 213 2275 61 
Q 1981 -91 1556 -91 
Q 1019 -91 701 211 
Q 384 513 384 1019 
Q 384 1609 779 1909 
Q 1175 2209 1959 2209 
L 2766 2209 
L 2766 2266 
Q 2766 2663 2505 2880 
Q 2244 3097 1772 3097 
Q 1472 3097 1187 3025 
Q 903 2953 641 2809 
L 641 3341 
Q 956 3463 1253 3523 
Q 1550 3584 1831 3584 
Q 2591 3584 2966 3190 
Q 3341 2797 3341 1997 
z
" transform="scale(0.015625)"/>
      <path id="DejaVuSans-76" d="M 191 3500 
L 800 3500 
L 1894 563 
L 2988 3500 
L 3597 3500 
L 2284 0 
L 1503 0 
L 191 3500 
z
" transform="scale(0.015625)"/>
      <path id="DejaVuSans-65" d="M 3597 1894 
L 3597 1613 
L 953 1613 
Q 991 1019 1311 708 
Q 1631 397 2203 397 
Q 2534 397 2845 478 
Q 3156 559 3463 722 
L 3463 178 
Q 3153 47 2828 -22 
Q 2503 -91 2169 -91 
Q 1331 -91 842 396 
Q 353 884 353 1716 
Q 353 2575 817 3079 
Q 1281 3584 2069 3584 
Q 2775 3584 3186 3129 
Q 3597 2675 3597 1894 
z
M 3022 2063 
Q 3016 2534 2758 2815 
Q 2500 3097 2075 3097 
Q 1594 3097 1305 2825 
Q 1016 2553 972 2059 
L 3022 2063 
z
" transform="scale(0.015625)"/>
      <path id="DejaVuSans-72" d="M 2631 2963 
Q 2534 3019 2420 3045 
Q 2306 3072 2169 3072 
Q 1681 3072 1420 2755 
Q 1159 2438 1159 1844 
L 1159 0 
L 581 0 
L 581 3500 
L 1159 3500 
L 1159 2956 
Q 1341 3275 1631 3429 
Q 1922 3584 2338 3584 
Q 2397 3584 2469 3576 
Q 2541 3569 2628 3553 
L 2631 2963 
z
" transform="scale(0.015625)"/>
      <path id="DejaVuSans-6f" d="M 1959 3097 
Q 1497 3097 1228 2736 
Q 959 2375 959 1747 
Q 959 1119 1226 758 
Q 1494 397 1959 397 
Q 2419 397 2687 759 
Q 2956 1122 2956 1747 
Q 2956 2369 2687 2733 
Q 2419 3097 1959 3097 
z
M 1959 3584 
Q 2709 3584 3137 3096 
Q 3566 2609 3566 1747 
Q 3566 888 3137 398 
Q 2709 -91 1959 -91 
Q 1206 -91 779 398 
Q 353 888 353 1747 
Q 353 2609 779 3096 
Q 1206 3584 1959 3584 
z
" transform="scale(0.015625)"/>
      <path id="DejaVuSans-66" d="M 2375 4863 
L 2375 4384 
L 1825 4384 
Q 1516 4384 1395 4259 
Q 1275 4134 1275 3809 
L 1275 3500 
L 2222 3500 
L 2222 3053 
L 1275 3053 
L 1275 0 
L 697 0 
L 697 3053 
L 147 3053 
L 147 3500 
L 697 3500 
L 697 3744 
Q 697 4328 969 4595 
Q 1241 4863 1831 4863 
L 2375 4863 
z
" transform="scale(0.015625)"/>
      <path id="DejaVuSans-70" d="M 1159 525 
L 1159 -1331 
L 581 -1331 
L 581 3500 
L 1159 3500 
L 1159 2969 
Q 1341 3281 1617 3432 
Q 1894 3584 2278 3584 
Q 2916 3584 3314 3078 
Q 3713 2572 3713 1747 
Q 3713 922 3314 415 
Q 2916 -91 2278 -91 
Q 1894 -91 1617 61 
Q 1341 213 1159 525 
z
M 3116 1747 
Q 3116 2381 2855 2742 
Q 2594 3103 2138 3103 
Q 1681 3103 1420 2742 
Q 1159 2381 1159 1747 
Q 1159 1113 1420 752 
Q 1681 391 2138 391 
Q 2594 391 2855 752 
Q 3116 1113 3116 1747 
z
" transform="scale(0.015625)"/>
      <path id="DejaVuSans-73" d="M 2834 3397 
L 2834 2853 
Q 2591 2978 2328 3040 
Q 2066 3103 1784 3103 
Q 1356 3103 1142 2972 
Q 928 2841 928 2578 
Q 928 2378 1081 2264 
Q 1234 2150 1697 2047 
L 1894 2003 
Q 2506 1872 2764 1633 
Q 3022 1394 3022 966 
Q 3022 478 2636 193 
Q 2250 -91 1575 -91 
Q 1294 -91 989 -36 
Q 684 19 347 128 
L 347 722 
Q 666 556 975 473 
Q 1284 391 1588 391 
Q 1994 391 2212 530 
Q 2431 669 2431 922 
Q 2431 1156 2273 1281 
Q 2116 1406 1581 1522 
L 1381 1569 
Q 847 1681 609 1914 
Q 372 2147 372 2553 
Q 372 3047 722 3315 
Q 1072 3584 1716 3584 
Q 2034 3584 2315 3537 
Q 2597 3491 2834 3397 
z
" transform="scale(0.015625)"/>
      <path id="DejaVuSans-63" d="M 3122 3366 
L 3122 2828 
Q 2878 2963 2633 3030 
Q 2388 3097 2138 3097 
Q 1578 3097 1268 2742 
Q 959 2388 959 1747 
Q 959 1106 1268 751 
Q 1578 397 2138 397 
Q 2388 397 2633 464 
Q 2878 531 3122 666 
L 3122 134 
Q 2881 22 2623 -34 
Q 2366 -91 2075 -91 
Q 1284 -91 818 406 
Q 353 903 353 1747 
Q 353 2603 823 3093 
Q 1294 3584 2113 3584 
Q 2378 3584 2631 3529 
Q 2884 3475 3122 3366 
z
" transform="scale(0.015625)"/>
     </defs>
     <use xlink:href="#DejaVuSans-52"/>
     <use xlink:href="#DejaVuSans-75" x="64.982422"/>
     <use xlink:href="#DejaVuSans-6e" x="128.361328"/>
     <use xlink:href="#DejaVuSans-6e" x="191.740234"/>
     <use xlink:href="#DejaVuSans-69" x="255.119141"/>
     <use xlink:href="#DejaVuSans-6e" x="282.902344"/>
     <use xlink:href="#DejaVuSans-67" x="346.28125"/>
     <use xlink:href="#DejaVuSans-20" x="409.757812"/>
     <use xlink:href="#DejaVuSans-61" x="441.544922"/>
     <use xlink:href="#DejaVuSans-76" x="502.824219"/>
     <use xlink:href="#DejaVuSans-65" x="562.003906"/>
     <use xlink:href="#DejaVuSans-72" x="623.527344"/>
     <use xlink:href="#DejaVuSans-61" x="664.640625"/>
     <use xlink:href="#DejaVuSans-67" x="725.919922"/>
     <use xlink:href="#DejaVuSans-65" x="789.396484"/>
     <use xlink:href="#DejaVuSans-20" x="850.919922"/>
     <use xlink:href="#DejaVuSans-6f" x="882.707031"/>
     <use xlink:href="#DejaVuSans-66" x="943.888672"/>
     <use xlink:href="#DejaVuSans-20" x="979.09375"/>
     <use xlink:href="#DejaVuSans-70" x="1010.880859"/>
     <use xlink:href="#DejaVuSans-72" x="1074.357422"/>
     <use xlink:href="#DejaVuSans-65" x="1113.220703"/>
     <use xlink:href="#DejaVuSans-76" x="1174.744141"/>
     <use xlink:href="#DejaVuSans-69" x="1233.923828"/>
     <use xlink:href="#DejaVuSans-6f" x="1261.707031"/>
     <use xlink:href="#DejaVuSans-75" x="1322.888672"/>
     <use xlink:href="#DejaVuSans-73" x="1386.267578"/>
     <use xlink:href="#DejaVuSans-20" x="1438.367188"/>
     <use xlink:href="#DejaVuSans-31" x="1470.154297"/>
     <use xlink:href="#DejaVuSans-30" x="1533.777344"/>
     <use xlink:href="#DejaVuSans-30" x="1597.400391"/>
     <use xlink:href="#DejaVuSans-20" x="1661.023438"/>
     <use xlink:href="#DejaVuSans-73" x="1692.810547"/>
     <use xlink:href="#DejaVuSans-63" x="1744.910156"/>
     <use xlink:href="#DejaVuSans-6f" x="1799.890625"/>
     <use xlink:href="#DejaVuSans-72" x="1861.072266"/>
     <use xlink:href="#DejaVuSans-65" x="1899.935547"/>
     <use xlink:href="#DejaVuSans-73" x="1961.458984"/>
    </g>
   </g>
  </g>
 </g>
 <defs>
  <clipPath id="p0c4e0ad01c">
   <rect x="57.6" y="41.472" width="357.12" height="266.112"/>
  </clipPath>
 </defs>
</svg>
